<?xml version="1.0" encoding="UTF-8"?>
<!DOCTYPE svg PUBLIC "-//W3C//DTD SVG 1.1//EN" "http://www.w3.org/Graphics/SVG/1.1/DTD/svg11.dtd">
<!-- Creator: CorelDRAW X7 -->
<svg xmlns="http://www.w3.org/2000/svg" xml:space="preserve" width="4.2333mm" height="3.1488mm" version="1.1" style="shape-rendering:geometricPrecision; text-rendering:geometricPrecision; image-rendering:optimizeQuality; fill-rule:evenodd; clip-rule:evenodd"
viewBox="0 0 3 2"
 xmlns:xlink="http://www.w3.org/1999/xlink">
 <defs>
  <style type="text/css">
   <![CDATA[
    .fil9 {fill:none}
    .fil5 {fill:#00538C}
    .fil4 {fill:#00538C}
    .fil8 {fill:#999999}
    .fil6 {fill:#9999FF}
    .fil1 {fill:#CCCCCC}
    .fil7 {fill:white}
    .fil3 {fill:white}
    .fil2 {fill:#00538C;fill-rule:nonzero}
    .fil0 {fill:#00538C;fill-rule:nonzero}
   ]]>
  </style>
 </defs>
 <g id="Layer_x0020_1">
  <metadata id="CorelCorpID_0Corel-Layer"/>
  <g id="_2452441064256">
   <path class="fil0" d="M1 0l0 0 1 0 0 0 0 0 0 1 0 0 0 0 -1 0 0 0 0 0 0 0 0 -1 0 0 0 0zm0 0l0 0 0 1 0 0 1 0 0 -1 -1 0z"/>
   <ellipse class="fil1" cx="1" cy="2"/>
   <path class="fil2" d="M0 1l1 0 1 0c0,0 0,0 0,0 0,0 0,0 0,0l0 1c0,0 0,0 0,0 0,0 0,0 0,0l-1 0 -1 0c0,0 0,0 0,0 0,0 0,0 0,0l0 -1c0,0 0,0 0,0 0,0 0,0 0,0zm1 0l-1 0c0,0 0,0 0,0 0,0 0,0 0,0l0 1c0,0 0,0 0,0 0,0 0,0 0,0l1 0 1 0c0,0 0,0 0,0 0,0 0,0 0,0l0 -1c0,0 0,0 0,0 0,0 0,0 0,0l-1 0z"/>
   <path class="fil3" d="M1 0c0,0 0,0 0,0 0,0 0,1 0,1 0,0 0,0 0,0 0,0 0,0 0,0 0,0 0,0 0,0 0,0 0,0 0,0 0,0 0,-1 0,-1 0,0 0,0 0,0z"/>
   <path class="fil2" d="M1 0c0,0 0,0 0,0 0,0 0,1 0,1 0,0 0,0 0,0 0,0 0,0 0,0 0,0 0,0 0,0 0,0 0,0 0,0 0,0 0,-1 0,-1 0,0 0,0 0,0zm0 0c0,0 0,0 0,0 0,0 0,0 0,0 0,0 0,1 0,1 0,0 0,0 0,0 0,0 0,0 0,0 0,0 0,0 0,0 0,0 0,0 0,0 0,0 0,-1 0,-1z"/>
   <path class="fil4" d="M1 1c0,0 0,0 0,0 0,0 0,0 0,0 0,0 0,0 0,0 0,0 0,0 0,0z"/>
   <polygon class="fil5" points="1,0 1,0 1,1 1,1 "/>
   <polygon class="fil6" points="1,0 1,0 1,1 1,1 "/>
   <polygon class="fil7" points="1,1 1,1 1,2 1,2 "/>
   <path class="fil3" d="M2 0c0,0 -1,0 -1,0 0,0 0,1 0,1 0,0 0,0 0,0 0,0 1,0 1,0 0,0 0,0 0,0 0,0 0,0 0,0 0,0 0,-1 0,-1 0,0 0,0 0,0z"/>
   <path class="fil2" d="M2 0c-1,0 -1,0 -1,0 0,0 0,1 0,1 0,0 0,0 0,0 0,0 0,0 1,0 0,0 0,0 0,0 0,0 0,0 0,0 0,0 0,-1 0,-1 0,0 0,0 0,0zm-1 0c0,0 1,0 1,0 0,0 0,0 0,0 0,0 0,1 0,1 0,0 0,0 0,0 0,0 0,0 0,0 0,0 -1,0 -1,0 0,0 0,0 0,0 0,0 0,-1 0,-1z"/>
   <path class="fil4" d="M2 1c0,0 0,0 0,0 0,0 0,0 0,0 0,0 0,0 0,0 0,0 0,0 0,0z"/>
   <polygon class="fil5" points="2,0 2,0 2,1 2,1 "/>
   <polygon class="fil6" points="2,0 2,0 2,1 2,1 "/>
   <polygon class="fil7" points="2,1 1,1 1,2 2,2 "/>
   <path class="fil0" d="M1 1l0 0c0,0 0,0 0,0 0,0 0,0 0,0l0 0c0,0 0,0 0,0 0,0 0,0 0,0l0 0 1 0c0,0 0,0 0,0 0,0 0,0 0,0l0 0c0,0 0,0 0,0 0,0 0,0 0,0l-1 0z"/>
   <path class="fil8" d="M1 1l0 0 1 0c0,0 0,0 0,0 0,0 0,0 0,0l0 0c0,0 0,0 0,0 0,0 0,0 0,0l0 1 0 0c0,0 0,0 0,0 0,0 0,0 0,0l0 -1c0,0 0,0 0,0 0,0 0,0 0,0l0 0c0,0 0,0 0,0 0,0 0,0 0,0 -1,0 -1,0 -1,0 0,0 0,0 0,0l0 0 0 0c0,0 0,0 0,0 0,0 0,0 0,0 0,0 0,0 0,0 0,0 0,0 0,0l-1 0c0,0 0,0 0,0 0,0 0,0 0,0l0 1c0,0 0,0 0,0 0,0 0,0 0,0l1 0 0 -1c0,0 0,0 0,0 0,0 0,0 0,0l0 0c0,0 0,0 0,0 0,0 0,0 0,0z"/>
   <path class="fil3" d="M1 1c0,0 0,-1 0,-1 0,0 0,0 0,0 0,0 0,0 0,0 0,0 0,1 0,1l0 0 0 0c0,0 0,-1 0,-1 0,0 0,0 1,0 0,0 0,0 0,0 0,0 0,1 0,1l0 0 0 -1 -1 0 0 0 0 1 0 0z"/>
   <path class="fil2" d="M1 1l0 0 1 0 0 0 0 0 0 1 0 0 0 0 -1 0 0 0 0 0 0 0 0 -1 0 0 0 0zm0 0l0 0 0 1 0 0 1 0 0 -1 -1 0z"/>
   <path class="fil9" d="M1 2l0 0m1 0l-1 0m1 0l-1 0m1 0l-1 0m1 0l-1 0m0 0l0 0m0 0l0 0m0 0l0 0"/>
   <path class="fil0" d="M1 2l0 0 1 0 0 0 -1 0 0 0 0 0zm1 0l-1 0 0 0 0 0 0 0 1 0 0 0zm0 0l-1 0 0 0 0 0 0 0 1 0 0 0zm0 0l-1 0 0 0 0 0 0 0 1 0 0 0z"/>
  </g>
 </g>
</svg>
